<svg xmlns="http://www.w3.org/2000/svg" width="512" height="512" viewBox="0 0 192 192">
  <rect width="192" height="192" rx="40" fill="#db2777" />
  <g transform="translate(36, 36) scale(5)">
    <path d="M19 5c-1.5 0-2.8 1.4-3 2-3.5-1.5-11-.3-11 5 0 1.8 0 3 2 4.5V20h4v-2h2v2h4v-2c2-1.5 2-2.7 2-4.5 0-3.4-1.2-4-2-4.3.2-.4.7-1.2.7-2.1 0-1.1-.8-2.1-1.7-2.1z" fill="#fbcfe8" stroke="#ffffff" stroke-width="1.5" stroke-linecap="round" stroke-linejoin="round" />
    <path d="M7 11h.01" stroke="#ffffff" stroke-width="1.5" stroke-linecap="round" />
    <path d="M11 11h.01" stroke="#ffffff" stroke-width="1.5" stroke-linecap="round" />
  </g>
</svg>